<svg width="64" height="64" viewBox="0 0 64 64" fill="none" xmlns="http://www.w3.org/2000/svg">
<circle cx="32" cy="32" r="32" fill="#B7D7E5"/>
<path d="M46.2222 45.3332V41.7776C46.2222 39.8916 45.4729 38.0829 44.1394 36.7493C42.8058 35.4157 40.997 34.6665 39.111 34.6665H24.8888C23.0028 34.6665 21.1941 35.4157 19.8605 36.7493C18.5269 38.0829 17.7777 39.8916 17.7777 41.7776V45.3332" stroke="white" stroke-width="1.5" stroke-linecap="round" stroke-linejoin="round"/>
<path d="M32 30.222C35.9273 30.222 39.1111 27.0382 39.1111 23.1109C39.1111 19.1835 35.9273 15.9998 32 15.9998C28.0726 15.9998 24.8889 19.1835 24.8889 23.1109C24.8889 27.0382 28.0726 30.222 32 30.222Z" stroke="white" stroke-width="1.5" stroke-linecap="round" stroke-linejoin="round"/>
</svg>
