<svg width="37" height="36" viewBox="0 0 37 36" fill="none" xmlns="http://www.w3.org/2000/svg">
<circle cx="18.5871" cy="18" r="18" fill="#3B46A5"/>
<path d="M26.5871 25.5V23.5C26.5871 22.4391 26.1657 21.4217 25.4155 20.6716C24.6654 19.9214 23.648 19.5 22.5871 19.5H14.5871C13.5262 19.5 12.5088 19.9214 11.7587 20.6716C11.0085 21.4217 10.5871 22.4391 10.5871 23.5V25.5" stroke="white" stroke-width="1.5" stroke-linecap="round" stroke-linejoin="round"/>
<path d="M18.5871 17C20.7962 17 22.5871 15.2091 22.5871 13C22.5871 10.7909 20.7962 9 18.5871 9C16.378 9 14.5871 10.7909 14.5871 13C14.5871 15.2091 16.378 17 18.5871 17Z" stroke="white" stroke-width="1.5" stroke-linecap="round" stroke-linejoin="round"/>
</svg>
