<svg width="30" height="28" viewBox="0 0 30 28" fill="none" xmlns="http://www.w3.org/2000/svg">
<g filter="url(#filter0_d_75_127)">
<path d="M22.4717 5.79975C21.3296 5.06895 19.9476 4.82651 18.629 5.12565C17.3104 5.42479 16.163 6.24107 15.4386 7.39532C15.2245 7.74046 14.7223 7.74047 14.5082 7.39532C13.7824 6.24053 12.6335 5.42409 11.3137 5.12499C9.99381 4.82589 8.61056 5.06855 7.46723 5.79975C5.10184 7.31554 4.15569 10.6902 5.89031 12.916L7.85362 15.1099C9.84405 17.3331 12.8344 20.653 14.2097 22.179C14.6059 22.6187 15.2949 22.6194 15.6923 22.1807C17.0787 20.6505 20.1004 17.3118 22.0932 15.086L24.0407 12.916C25.9172 10.5227 24.8528 7.31554 22.4717 5.79975Z" fill="black" fill-opacity="0.1" shape-rendering="crispEdges"/>
<path d="M22.4717 5.79975C21.3296 5.06895 19.9476 4.82651 18.629 5.12565C17.3104 5.42479 16.163 6.24107 15.4386 7.39532C15.2245 7.74046 14.7223 7.74047 14.5082 7.39532C13.7824 6.24053 12.6335 5.42409 11.3137 5.12499C9.99381 4.82589 8.61056 5.06855 7.46723 5.79975C5.10184 7.31554 4.15569 10.6902 5.89031 12.916L7.85362 15.1099C9.84405 17.3331 12.8344 20.653 14.2097 22.179C14.6059 22.6187 15.2949 22.6194 15.6923 22.1807C17.0787 20.6505 20.1004 17.3118 22.0932 15.086L24.0407 12.916C25.9172 10.5227 24.8528 7.31554 22.4717 5.79975Z" stroke="white" stroke-width="1.5" shape-rendering="crispEdges"/>
</g>
<defs>
<filter id="filter0_d_75_127" x="0.246277" y="0.249994" width="29.5082" height="27.0092" filterUnits="userSpaceOnUse" color-interpolation-filters="sRGB">
<feFlood flood-opacity="0" result="BackgroundImageFix"/>
<feColorMatrix in="SourceAlpha" type="matrix" values="0 0 0 0 0 0 0 0 0 0 0 0 0 0 0 0 0 0 127 0" result="hardAlpha"/>
<feOffset/>
<feGaussianBlur stdDeviation="2"/>
<feComposite in2="hardAlpha" operator="out"/>
<feColorMatrix type="matrix" values="0 0 0 0 0 0 0 0 0 0 0 0 0 0 0 0 0 0 0.25 0"/>
<feBlend mode="normal" in2="BackgroundImageFix" result="effect1_dropShadow_75_127"/>
<feBlend mode="normal" in="SourceGraphic" in2="effect1_dropShadow_75_127" result="shape"/>
</filter>
</defs>
</svg>
