<svg width="16" height="16" viewBox="0 0 16 16" fill="none" xmlns="http://www.w3.org/2000/svg">
<path fill-rule="evenodd" clip-rule="evenodd" d="M8.29486 9.45469C9.64028 9.46657 10.7273 10.5609 10.7273 11.9091C10.7273 11.9591 10.7228 12.0079 10.7142 12.0554C10.7228 12.008 10.7272 11.9591 10.7272 11.9092C10.7272 10.5536 9.62831 9.45469 8.2727 9.45469H8.29486ZM10.8438 9.45469C11.4531 10.0927 11.8273 10.9572 11.8273 11.9091C11.8273 12.2018 11.7617 12.4792 11.6445 12.7274H13.1818C13.6337 12.7274 14 12.3611 14 11.9092C14 10.5536 12.9011 9.45469 11.5455 9.45469H10.8438ZM9.64546 6.18182C9.64546 6.9624 9.37294 7.67933 8.91786 8.24265C9.14286 8.3211 9.38464 8.36373 9.63638 8.36373C10.8414 8.36373 11.8182 7.3869 11.8182 6.18192C11.8182 4.97693 10.8414 4.0001 9.63638 4.0001C9.38469 4.0001 9.14294 4.04272 8.91798 4.12113C9.37299 4.68444 9.64546 5.40131 9.64546 6.18182ZM8 4.73876C8.00002 4.73874 8.00004 4.73872 8.00006 4.7387C8.3395 5.12331 8.54546 5.62851 8.54546 6.18182C8.54546 6.36471 8.52296 6.54235 8.48056 6.71212C8.52294 6.54238 8.54544 6.36478 8.54544 6.18192C8.54544 5.62859 8.33946 5.12338 8 4.73876Z" fill="white"/>
<path fill-rule="evenodd" clip-rule="evenodd" d="M6.36364 8.36364C7.56863 8.36364 8.54546 7.3868 8.54546 6.18182C8.54546 4.97683 7.56863 4 6.36364 4C5.15866 4 4.18182 4.97683 4.18182 6.18182C4.18182 7.3868 5.15866 8.36364 6.36364 8.36364ZM4.45455 9.45459C3.09894 9.45459 2 10.5535 2 11.9091C2 12.361 2.36631 12.7273 2.81818 12.7273H9.90909C10.361 12.7273 10.7273 12.361 10.7273 11.9091C10.7273 10.5535 9.62834 9.45459 8.27273 9.45459H4.45455Z" fill="white"/>
</svg>
