<svg width="63" height="74" viewBox="0 0 63 74" fill="none" xmlns="http://www.w3.org/2000/svg">
<g filter="url(#filter0_d_38_2267)">
<path fill-rule="evenodd" clip-rule="evenodd" d="M56.7628 41.5753C58.2024 38.3072 59 34.704 59 30.9183C59 16.0517 46.699 4 31.525 4C16.3515 4 4.05082 16.051 4.05005 30.9169H4.04969C3.81181 34.7624 4.01897 42.2786 14.3667 53.1158C20.3987 59.4332 25.6644 63.9461 29.0141 66.8169C29.7926 67.4842 30.4677 68.0627 31.0248 68.5546C31.9063 69.3328 33.3175 69.3644 34.164 68.5483C35.0443 67.6997 36.0222 66.7639 37.0504 65.7799C41.6842 61.3456 47.3402 55.933 49.6927 53.1158C52.3889 49.887 54.997 45.921 56.7628 41.5753Z" fill="white"/>
</g>
<ellipse cx="31.4933" cy="30.9196" rx="23.1932" ry="22.7233" fill="#FFBEBE"/>
<path d="M14.5642 28.736C14.5642 27.9893 14.6809 27.336 14.9142 26.776C15.1476 26.216 15.4742 25.7493 15.8942 25.376C16.3236 24.9933 16.8322 24.7087 17.4202 24.522C18.0082 24.326 18.6569 24.228 19.3662 24.228C20.0756 24.228 20.7242 24.326 21.3122 24.522C21.9096 24.7087 22.4229 24.9933 22.8522 25.376C23.2816 25.7493 23.6129 26.216 23.8462 26.776C24.0889 27.336 24.2102 27.9893 24.2102 28.736V31.648C24.2102 32.236 24.1356 32.7633 23.9862 33.23C23.8369 33.6967 23.6269 34.1073 23.3562 34.462L24.2942 35.428L23.0902 36.674L21.9842 35.568C21.2189 35.9413 20.3462 36.128 19.3662 36.128C18.6569 36.128 18.0082 36.03 17.4202 35.834C16.8322 35.6473 16.3236 35.3673 15.8942 34.994C15.4742 34.6207 15.1476 34.154 14.9142 33.594C14.6809 33.034 14.5642 32.3853 14.5642 31.648V28.736ZM16.7902 31.228C16.7902 32.2547 17.0236 33.0153 17.4902 33.51C17.9569 34.0047 18.5822 34.252 19.3662 34.252C19.7769 34.252 20.1456 34.182 20.4722 34.042L18.7502 32.306L20.0382 31.06L21.6762 32.754C21.8442 32.334 21.9282 31.8253 21.9282 31.228V29.184C21.9282 28.148 21.6949 27.3827 21.2282 26.888C20.7709 26.3933 20.1502 26.146 19.3662 26.146C18.5916 26.146 17.9662 26.3933 17.4902 26.888C17.0236 27.3827 16.7902 28.148 16.7902 29.184V31.228ZM29.4336 34.63C29.2803 34.85 29.0403 35.0433 28.7136 35.21C28.3936 35.3833 28.0036 35.47 27.5436 35.47C27.1836 35.47 26.8569 35.41 26.5636 35.29C26.2769 35.1767 26.0303 35.01 25.8236 34.79C25.6236 34.5767 25.4703 34.32 25.3636 34.02C25.2569 33.72 25.2036 33.39 25.2036 33.03V29.1H26.7636V32.75C26.7636 33.17 26.8736 33.4933 27.0936 33.72C27.3136 33.94 27.6269 34.0267 28.0336 33.98C28.2203 33.96 28.3969 33.9167 28.5636 33.85C28.7369 33.7833 28.8836 33.69 29.0036 33.57C29.1303 33.45 29.2303 33.3033 29.3036 33.13C29.3769 32.9567 29.4136 32.7533 29.4136 32.52V29.1H30.9736V35.36H29.4736L29.4336 34.63ZM37.4042 33.54C37.2842 34.2133 36.9676 34.71 36.4542 35.03C35.9476 35.35 35.3142 35.51 34.5542 35.51C34.0942 35.51 33.6809 35.4467 33.3142 35.32C32.9542 35.1933 32.6442 35.01 32.3842 34.77C32.1309 34.53 31.9342 34.24 31.7942 33.9C31.6609 33.56 31.5942 33.18 31.5942 32.76V31.62C31.5942 31.2 31.6609 30.8233 31.7942 30.49C31.9342 30.15 32.1309 29.86 32.3842 29.62C32.6376 29.38 32.9442 29.1967 33.3042 29.07C33.6709 28.9367 34.0842 28.87 34.5442 28.87C34.9976 28.87 35.4076 28.9367 35.7742 29.07C36.1409 29.1967 36.4509 29.38 36.7042 29.62C36.9642 29.86 37.1609 30.15 37.2942 30.49C37.4342 30.8233 37.5042 31.2 37.5042 31.62V31.84C37.5109 31.9067 37.5142 31.9733 37.5142 32.04C37.5142 32.1 37.5142 32.1633 37.5142 32.23V32.65H33.1142C33.1142 33.2233 33.2376 33.6267 33.4842 33.86C33.7309 34.0867 34.0876 34.2 34.5542 34.2C34.8609 34.2 35.1276 34.1533 35.3542 34.06C35.5809 33.9667 35.7209 33.7933 35.7742 33.54H37.4042ZM34.5442 30.2C34.1242 30.2 33.7942 30.29 33.5542 30.47C33.3209 30.65 33.1776 30.96 33.1242 31.4H35.9242C35.8776 30.96 35.7376 30.65 35.5042 30.47C35.2776 30.29 34.9576 30.2 34.5442 30.2ZM39.5095 33.27C39.5162 33.4567 39.5529 33.61 39.6195 33.73C39.6862 33.85 39.7729 33.9433 39.8795 34.01C39.9929 34.0833 40.1229 34.1333 40.2695 34.16C40.4162 34.1867 40.5729 34.2 40.7395 34.2C40.8929 34.2 41.0429 34.19 41.1895 34.17C41.3429 34.1567 41.4762 34.1267 41.5895 34.08C41.7095 34.0333 41.8029 33.9667 41.8695 33.88C41.9429 33.7933 41.9762 33.68 41.9695 33.54C41.9629 33.38 41.8762 33.2467 41.7095 33.14C41.5429 33.0333 41.3329 32.94 41.0795 32.86C40.8262 32.7733 40.5429 32.6967 40.2295 32.63C39.9229 32.5567 39.6262 32.4733 39.3395 32.38C38.9329 32.2467 38.6395 32.0433 38.4595 31.77C38.2862 31.49 38.1962 31.1633 38.1895 30.79C38.1829 30.49 38.2462 30.22 38.3795 29.98C38.5129 29.74 38.6929 29.54 38.9195 29.38C39.1462 29.2133 39.4062 29.0867 39.6995 29C39.9995 28.9133 40.3162 28.87 40.6495 28.87C41.0295 28.87 41.3795 28.9133 41.6995 29C42.0262 29.0867 42.3095 29.2167 42.5495 29.39C42.7895 29.5633 42.9829 29.7833 43.1295 30.05C43.2762 30.3167 43.3595 30.6333 43.3795 31H41.8695C41.8162 30.7467 41.6929 30.5467 41.4995 30.4C41.3062 30.2533 41.0329 30.1833 40.6795 30.19C40.3929 30.1967 40.1595 30.2467 39.9795 30.34C39.8062 30.4333 39.7195 30.5967 39.7195 30.83C39.7195 30.95 39.7629 31.0567 39.8495 31.15C39.9362 31.2433 40.0929 31.3267 40.3195 31.4C40.5729 31.48 40.8495 31.5467 41.1495 31.6C41.4495 31.6533 41.7462 31.7433 42.0395 31.87C42.2195 31.95 42.3995 32.0467 42.5795 32.16C42.7595 32.2667 42.9195 32.3933 43.0595 32.54C43.1995 32.68 43.3095 32.84 43.3895 33.02C43.4762 33.1933 43.5195 33.3833 43.5195 33.59C43.5195 33.9833 43.4462 34.3033 43.2995 34.55C43.1529 34.7967 42.9529 34.99 42.6995 35.13C42.4529 35.2767 42.1595 35.3767 41.8195 35.43C41.4862 35.4833 41.1262 35.51 40.7395 35.51C40.3795 35.51 40.0362 35.4733 39.7095 35.4C39.3829 35.3267 39.0929 35.2033 38.8395 35.03C38.5862 34.8633 38.3829 34.6367 38.2295 34.35C38.0762 34.0633 37.9929 33.7033 37.9795 33.27H39.5095ZM46.4189 27V29.19H47.6089V30.5H46.4189V33.22C46.4189 33.3533 46.4256 33.4767 46.4389 33.59C46.4522 33.6967 46.4822 33.7933 46.5289 33.88C46.5822 33.9667 46.6622 34.0333 46.7689 34.08C46.8756 34.1267 47.0256 34.15 47.2189 34.15H47.7189V35.47H46.9689C46.5622 35.47 46.2256 35.42 45.9589 35.32C45.6922 35.22 45.4789 35.0833 45.3189 34.91C45.1589 34.7367 45.0456 34.5267 44.9789 34.28C44.9122 34.04 44.8789 33.7733 44.8789 33.48V30.5H43.7889V29.19H44.8789V27H46.4189Z" fill="white"/>
<defs>
<filter id="filter0_d_38_2267" x="0" y="0" width="63" height="73.1494" filterUnits="userSpaceOnUse" color-interpolation-filters="sRGB">
<feFlood flood-opacity="0" result="BackgroundImageFix"/>
<feColorMatrix in="SourceAlpha" type="matrix" values="0 0 0 0 0 0 0 0 0 0 0 0 0 0 0 0 0 0 127 0" result="hardAlpha"/>
<feOffset/>
<feGaussianBlur stdDeviation="2"/>
<feComposite in2="hardAlpha" operator="out"/>
<feColorMatrix type="matrix" values="0 0 0 0 0 0 0 0 0 0 0 0 0 0 0 0 0 0 0.5 0"/>
<feBlend mode="normal" in2="BackgroundImageFix" result="effect1_dropShadow_38_2267"/>
<feBlend mode="normal" in="SourceGraphic" in2="effect1_dropShadow_38_2267" result="shape"/>
</filter>
</defs>
</svg>
