<svg width="48" height="48" viewBox="0 0 48 48" fill="none" xmlns="http://www.w3.org/2000/svg">
<rect width="48" height="48" rx="24" fill="#FFE812"/>
<path d="M24 17C18.4771 17 14 20.2516 14 24.2626C14 26.8557 15.8718 29.1311 18.6873 30.416C18.5341 30.9026 17.703 33.5463 17.6699 33.7541C17.6699 33.7541 17.65 33.9101 17.7597 33.9696C17.8694 34.0291 17.9984 33.9829 17.9984 33.9829C18.3131 33.9424 21.6468 31.7854 22.2239 31.4109C22.8003 31.4861 23.3939 31.5252 24 31.5252C29.5229 31.5252 34 28.2736 34 24.2626C34 20.2516 29.5229 17 24 17Z" fill="#381F1F"/>
</svg>
