<svg width="74" height="74" viewBox="0 0 74 74" fill="none" xmlns="http://www.w3.org/2000/svg">
<path d="M74 37C74 57.4345 57.4345 74 37 74C16.5655 74 0 57.4345 0 37C0 16.5655 16.5655 0 37 0C57.4345 0 74 16.5655 74 37Z" fill="#CADCFF"/>
<path d="M53.4444 52.4163V48.3052C53.4444 46.1246 52.5781 44.0332 51.0362 42.4912C49.4942 40.9493 47.4028 40.083 45.2222 40.083H28.7777C26.5971 40.083 24.5057 40.9493 22.9637 42.4912C21.4218 44.0332 20.5555 46.1246 20.5555 48.3052V52.4163" stroke="white" stroke-width="1.5" stroke-linecap="round" stroke-linejoin="round"/>
<path d="M36.9999 34.9444C41.541 34.9444 45.2222 31.2632 45.2222 26.7222C45.2222 22.1812 41.541 18.5 36.9999 18.5C32.4589 18.5 28.7777 22.1812 28.7777 26.7222C28.7777 31.2632 32.4589 34.9444 36.9999 34.9444Z" stroke="white" stroke-width="1.5" stroke-linecap="round" stroke-linejoin="round"/>
</svg>
