<svg width="22" height="20" viewBox="0 0 22 20" fill="none" xmlns="http://www.w3.org/2000/svg">
<path d="M18.4717 1.79975C17.3296 1.06895 15.9476 0.826505 14.629 1.12565C13.3104 1.42479 12.163 2.24107 11.4386 3.39532V3.39532C11.2245 3.74046 10.7223 3.74047 10.5082 3.39532V3.39532C9.78236 2.24053 8.63354 1.42409 7.31367 1.12499C5.99381 0.825891 4.61056 1.06855 3.46723 1.79975C1.10184 3.31554 0.15569 6.69019 1.89031 8.91601L3.85362 11.1099C5.84405 13.3331 8.8344 16.653 10.2097 18.179C10.6059 18.6187 11.2949 18.6194 11.6923 18.1807C13.0787 16.6505 16.1004 13.3118 18.0932 11.086L20.0407 8.91601C21.9172 6.52265 20.8528 3.31554 18.4717 1.79975Z" stroke="#262C31" stroke-width="1.5"/>
</svg>
